<svg width="40" height="40" viewBox="0 0 40 40" fill="none" xmlns="http://www.w3.org/2000/svg">
<mask id="path-1-inside-1_18_284" fill="white">
<path d="M0 20C0 8.95431 8.95431 0 20 0C31.0457 0 40 8.95431 40 20C40 31.0457 31.0457 40 20 40C8.95431 40 0 31.0457 0 20Z"/>
</mask>
<path d="M0 20C0 8.95431 8.95431 0 20 0C31.0457 0 40 8.95431 40 20C40 31.0457 31.0457 40 20 40C8.95431 40 0 31.0457 0 20Z" fill="#D4AF37" fill-opacity="0.1"/>
<path d="M20 40V39.2C9.39613 39.2 0.8 30.6039 0.8 20H0H-0.8C-0.8 31.4875 8.51248 40.8 20 40.8V40ZM40 20H39.2C39.2 30.6039 30.6039 39.2 20 39.2V40V40.8C31.4875 40.8 40.8 31.4875 40.8 20H40ZM20 0V0.8C30.6039 0.8 39.2 9.39613 39.2 20H40H40.8C40.8 8.51248 31.4875 -0.8 20 -0.8V0ZM20 0V-0.8C8.51248 -0.8 -0.8 8.51248 -0.8 20H0H0.8C0.8 9.39613 9.39613 0.8 20 0.8V0Z" fill="#D4AF37" fill-opacity="0.3" mask="url(#path-1-inside-1_18_284)"/>
<path d="M25 11.6665H22.5C21.3949 11.6665 20.3351 12.1055 19.5537 12.8869C18.7723 13.6683 18.3333 14.7281 18.3333 15.8332V18.3332H15.8333V21.6665H18.3333V28.3332H21.6666V21.6665H24.1666L25 18.3332H21.6666V15.8332C21.6666 15.6122 21.7544 15.4002 21.9107 15.2439C22.067 15.0876 22.279 14.9998 22.5 14.9998H25V11.6665Z" stroke="#D4AF37" stroke-width="1.66667" stroke-linecap="round" stroke-linejoin="round"/>
</svg>
