<svg width="40" height="40" viewBox="0 0 40 40" fill="none" xmlns="http://www.w3.org/2000/svg">
<mask id="path-1-inside-1_18_279" fill="white">
<path d="M0 20C0 8.95431 8.95431 0 20 0C31.0457 0 40 8.95431 40 20C40 31.0457 31.0457 40 20 40C8.95431 40 0 31.0457 0 20Z"/>
</mask>
<path d="M0 20C0 8.95431 8.95431 0 20 0C31.0457 0 40 8.95431 40 20C40 31.0457 31.0457 40 20 40C8.95431 40 0 31.0457 0 20Z" fill="#D4AF37" fill-opacity="0.1"/>
<path d="M20 40V39.2C9.39613 39.2 0.8 30.6039 0.8 20H0H-0.8C-0.8 31.4875 8.51248 40.8 20 40.8V40ZM40 20H39.2C39.2 30.6039 30.6039 39.2 20 39.2V40V40.8C31.4875 40.8 40.8 31.4875 40.8 20H40ZM20 0V0.8C30.6039 0.8 39.2 9.39613 39.2 20H40H40.8C40.8 8.51248 31.4875 -0.8 20 -0.8V0ZM20 0V-0.8C8.51248 -0.8 -0.8 8.51248 -0.8 20H0H0.8C0.8 9.39613 9.39613 0.8 20 0.8V0Z" fill="#D4AF37" fill-opacity="0.3" mask="url(#path-1-inside-1_18_279)"/>
<g clip-path="url(#clip0_18_279)">
<path d="M24.1667 11.6665H15.8334C13.5322 11.6665 11.6667 13.532 11.6667 15.8332V24.1665C11.6667 26.4677 13.5322 28.3332 15.8334 28.3332H24.1667C26.4679 28.3332 28.3334 26.4677 28.3334 24.1665V15.8332C28.3334 13.532 26.4679 11.6665 24.1667 11.6665Z" stroke="#D4AF37" stroke-width="1.66667" stroke-linecap="round" stroke-linejoin="round"/>
<path d="M23.3334 19.4753C23.4362 20.1688 23.3178 20.8771 22.9948 21.4994C22.6719 22.1218 22.161 22.6264 21.5347 22.9416C20.9085 23.2569 20.1987 23.3666 19.5065 23.2552C18.8143 23.1438 18.1748 22.817 17.6791 22.3212C17.1833 21.8255 16.8565 21.186 16.7451 20.4938C16.6337 19.8015 16.7434 19.0918 17.0586 18.4656C17.3739 17.8393 17.8785 17.3284 18.5009 17.0055C19.1232 16.6825 19.8315 16.5641 20.525 16.6669C21.2325 16.7718 21.8874 17.1015 22.3931 17.6072C22.8988 18.1129 23.2285 18.7678 23.3334 19.4753Z" stroke="#D4AF37" stroke-width="1.66667" stroke-linecap="round" stroke-linejoin="round"/>
<path d="M24.5833 15.4165H24.5916" stroke="#D4AF37" stroke-width="1.66667" stroke-linecap="round" stroke-linejoin="round"/>
</g>
<defs>
<clipPath id="clip0_18_279">
<rect width="20" height="20" fill="white" transform="translate(10 10)"/>
</clipPath>
</defs>
</svg>
