<svg width="40" height="40" viewBox="0 0 40 40" fill="none" xmlns="http://www.w3.org/2000/svg">
<mask id="path-1-inside-1_18_287" fill="white">
<path d="M0 20C0 8.95431 8.95431 0 20 0C31.0457 0 40 8.95431 40 20C40 31.0457 31.0457 40 20 40C8.95431 40 0 31.0457 0 20Z"/>
</mask>
<path d="M0 20C0 8.95431 8.95431 0 20 0C31.0457 0 40 8.95431 40 20C40 31.0457 31.0457 40 20 40C8.95431 40 0 31.0457 0 20Z" fill="#D4AF37" fill-opacity="0.1"/>
<path d="M20 40V39.2C9.39613 39.2 0.8 30.6039 0.8 20H0H-0.8C-0.8 31.4875 8.51248 40.8 20 40.8V40ZM40 20H39.2C39.2 30.6039 30.6039 39.2 20 39.2V40V40.8C31.4875 40.8 40.8 31.4875 40.8 20H40ZM20 0V0.8C30.6039 0.8 39.2 9.39613 39.2 20H40H40.8C40.8 8.51248 31.4875 -0.8 20 -0.8V0ZM20 0V-0.8C8.51248 -0.8 -0.8 8.51248 -0.8 20H0H0.8C0.8 9.39613 9.39613 0.8 20 0.8V0Z" fill="#D4AF37" fill-opacity="0.3" mask="url(#path-1-inside-1_18_287)"/>
<path d="M28.3334 13.3332C28.3334 13.3332 27.75 15.0832 26.6667 16.1665C28 24.4999 18.8334 30.5832 11.6667 25.8332C13.5 25.9165 15.3334 25.3332 16.6667 24.1665C12.5 22.9165 10.4167 17.9999 12.5 14.1665C14.3334 16.3332 17.1667 17.5832 20 17.4999C19.25 13.9999 23.3334 11.9999 25.8334 14.3332C26.75 14.3332 28.3334 13.3332 28.3334 13.3332Z" stroke="#D4AF37" stroke-width="1.66667" stroke-linecap="round" stroke-linejoin="round"/>
</svg>
